<svg xmlns="http://www.w3.org/2000/svg" width="32" height="32" viewBox="0 0 32 32" fill="none">
  <rect width="32" height="32" rx="8" fill="#0a0a0f"/>
  <circle cx="16" cy="16" r="13" stroke="url(#ring)" stroke-width="2" fill="#12121a"/>
  <path
    d="M16 9c0 0-2.8 2.2-2.8 4.6a2.8 2.8 0 0 0 5.6 0C18.8 11.2 16 9 16 9zm0 11.5c0 0-4.5-3.5-4.5-6.2a3.2 3.2 0 0 1 6.4 0c0 2.7-4.5 6.2-4.5 6.2z"
    fill="url(#heart)"
    opacity="0.95"
  />
  <path
    d="M16 9c0 0-2.8 2.2-2.8 4.6a2.8 2.8 0 0 0 5.6 0C18.8 11.2 16 9 16 9zm0 11.5c0 0-4.5-3.5-4.5-6.2a3.2 3.2 0 0 1 6.4 0c0 2.7-4.5 6.2-4.5 6.2z"
    fill="url(#heart2)"
    opacity="0.55"
  />
  <defs>
    <linearGradient id="ring" x1="4" y1="4" x2="28" y2="28" gradientUnits="userSpaceOnUse">
      <stop stop-color="#ec4899"/>
      <stop offset="1" stop-color="#9333ea"/>
    </linearGradient>
    <linearGradient id="heart" x1="10" y1="9" x2="22" y2="22" gradientUnits="userSpaceOnUse">
      <stop stop-color="#ec4899"/>
      <stop offset="1" stop-color="#a855f7"/>
    </linearGradient>
    <linearGradient id="heart2" x1="10" y1="14" x2="22" y2="24" gradientUnits="userSpaceOnUse">
      <stop stop-color="#ec4899"/>
      <stop offset="1" stop-color="#a855f7"/>
    </linearGradient>
  </defs>
</svg>
