<svg xmlns="http://www.w3.org/2000/svg" viewBox="0 0 512 512" fill="none" role="img" aria-label="Time to Match">
  <rect width="512" height="512" rx="112" fill="#0B0F14"/>
  <defs>
    <linearGradient id="ttm-app-grad" x1="96" y1="64" x2="416" y2="448" gradientUnits="userSpaceOnUse">
      <stop stop-color="#FF2D55"/>
      <stop offset="0.45" stop-color="#A855F7"/>
      <stop offset="1" stop-color="#3B82F6"/>
    </linearGradient>
    <filter id="ttm-app-glow" x="-40%" y="-40%" width="180%" height="180%">
      <feDropShadow dx="0" dy="0" stdDeviation="8" flood-color="#FF2D55" flood-opacity="0.45"/>
      <feDropShadow dx="0" dy="0" stdDeviation="18" flood-color="#A855F7" flood-opacity="0.3"/>
      <feDropShadow dx="0" dy="0" stdDeviation="28" flood-color="#3B82F6" flood-opacity="0.2"/>
    </filter>
  </defs>
  <g transform="translate(96 72) scale(4)" filter="url(#ttm-app-glow)">
    <rect x="32" y="2" width="16" height="6" rx="3" fill="url(#ttm-app-grad)"/>
    <path d="M40 8V14" stroke="url(#ttm-app-grad)" stroke-width="2.5" stroke-linecap="round"/>
    <path
      d="M40 76C18 58 10 46 10 34C10 22 18 14 28 14C33 14 37 17 40 22C43 17 47 14 52 14C62 14 70 22 70 34C70 46 62 58 40 76Z"
      stroke="url(#ttm-app-grad)"
      stroke-width="3"
      stroke-linecap="round"
      stroke-linejoin="round"
    />
    <path d="M40 42V32" stroke="url(#ttm-app-grad)" stroke-width="2.5" stroke-linecap="round"/>
    <path d="M40 42H54" stroke="url(#ttm-app-grad)" stroke-width="2.5" stroke-linecap="round"/>
    <circle cx="40" cy="42" r="2.5" fill="url(#ttm-app-grad)"/>
  </g>
</svg>
